<mxfile host="app.diagrams.net" agent="Mozilla/5.0 (Windows NT 10.0; Win64; x64) AppleWebKit/537.36 (KHTML, like Gecko) Chrome/127.0.0.0 Safari/537.36" version="24.7.7">
  <diagram id="prtHgNgQTEPvFCAcTncT" name="Page-1">
    <mxGraphModel dx="1147" dy="590" grid="1" gridSize="10" guides="1" tooltips="1" connect="1" arrows="1" fold="1" page="1" pageScale="1" pageWidth="827" pageHeight="1169" math="0" shadow="0">
      <root>
        <mxCell id="0" />
        <mxCell id="1" parent="0" />
        <mxCell id="AtuTsQVHR4-CBIeSU0OG-157" value="Cross-Functional Flowchart" style="shape=table;childLayout=tableLayout;startSize=40;collapsible=0;recursiveResize=0;expand=0;fontSize=16;fontStyle=1" vertex="1" parent="1">
          <mxGeometry x="100" y="490" width="660" height="780" as="geometry" />
        </mxCell>
        <mxCell id="AtuTsQVHR4-CBIeSU0OG-158" value="Actor 1" style="shape=tableRow;horizontal=0;swimlaneHead=0;swimlaneBody=0;top=0;left=0;strokeColor=inherit;bottom=0;right=0;dropTarget=0;fontStyle=1;fillColor=none;points=[[0,0.5],[1,0.5]];portConstraint=eastwest;startSize=40;collapsible=0;recursiveResize=0;expand=0;fontSize=16;" vertex="1" parent="AtuTsQVHR4-CBIeSU0OG-157">
          <mxGeometry y="40" width="660" height="210" as="geometry" />
        </mxCell>
        <mxCell id="AtuTsQVHR4-CBIeSU0OG-170" style="swimlane;swimlaneHead=0;swimlaneBody=0;fontStyle=1;strokeColor=inherit;connectable=0;fillColor=none;startSize=40;collapsible=0;recursiveResize=0;expand=0;fontSize=16;" vertex="1" parent="AtuTsQVHR4-CBIeSU0OG-158">
          <mxGeometry x="40" width="155" height="210" as="geometry">
            <mxRectangle width="155" height="210" as="alternateBounds" />
          </mxGeometry>
        </mxCell>
        <mxCell id="AtuTsQVHR4-CBIeSU0OG-186" value="" style="edgeStyle=orthogonalEdgeStyle;rounded=0;orthogonalLoop=1;jettySize=auto;html=1;" edge="1" parent="AtuTsQVHR4-CBIeSU0OG-170" source="AtuTsQVHR4-CBIeSU0OG-184" target="AtuTsQVHR4-CBIeSU0OG-185">
          <mxGeometry relative="1" as="geometry" />
        </mxCell>
        <mxCell id="AtuTsQVHR4-CBIeSU0OG-184" value="开始" style="strokeWidth=2;html=1;shape=mxgraph.flowchart.start_1;whiteSpace=wrap;" vertex="1" parent="AtuTsQVHR4-CBIeSU0OG-170">
          <mxGeometry x="41.25" y="55" width="72.5" height="35" as="geometry" />
        </mxCell>
        <mxCell id="AtuTsQVHR4-CBIeSU0OG-185" value="" style="whiteSpace=wrap;html=1;strokeWidth=2;" vertex="1" parent="AtuTsQVHR4-CBIeSU0OG-170">
          <mxGeometry x="17.5" y="110" width="120" height="60" as="geometry" />
        </mxCell>
        <mxCell id="AtuTsQVHR4-CBIeSU0OG-159" value="Phase 1" style="swimlane;swimlaneHead=0;swimlaneBody=0;fontStyle=1;strokeColor=inherit;connectable=0;fillColor=none;startSize=40;collapsible=0;recursiveResize=0;expand=0;fontSize=16;" vertex="1" parent="AtuTsQVHR4-CBIeSU0OG-158">
          <mxGeometry x="195" width="155" height="210" as="geometry">
            <mxRectangle width="155" height="210" as="alternateBounds" />
          </mxGeometry>
        </mxCell>
        <mxCell id="AtuTsQVHR4-CBIeSU0OG-160" value="Phase 2" style="swimlane;swimlaneHead=0;swimlaneBody=0;fontStyle=1;strokeColor=inherit;connectable=0;fillColor=none;startSize=40;collapsible=0;recursiveResize=0;expand=0;fontSize=16;" vertex="1" parent="AtuTsQVHR4-CBIeSU0OG-158">
          <mxGeometry x="350" width="155" height="210" as="geometry">
            <mxRectangle width="155" height="210" as="alternateBounds" />
          </mxGeometry>
        </mxCell>
        <mxCell id="AtuTsQVHR4-CBIeSU0OG-161" value="Phase 3" style="swimlane;swimlaneHead=0;swimlaneBody=0;fontStyle=1;strokeColor=inherit;connectable=0;fillColor=none;startSize=40;collapsible=0;recursiveResize=0;expand=0;fontSize=16;" vertex="1" parent="AtuTsQVHR4-CBIeSU0OG-158">
          <mxGeometry x="505" width="155" height="210" as="geometry">
            <mxRectangle width="155" height="210" as="alternateBounds" />
          </mxGeometry>
        </mxCell>
        <mxCell id="AtuTsQVHR4-CBIeSU0OG-162" value="Actor 2" style="shape=tableRow;horizontal=0;swimlaneHead=0;swimlaneBody=0;top=0;left=0;strokeColor=inherit;bottom=0;right=0;dropTarget=0;fontStyle=1;fillColor=none;points=[[0,0.5],[1,0.5]];portConstraint=eastwest;startSize=40;collapsible=0;recursiveResize=0;expand=0;fontSize=16;" vertex="1" parent="AtuTsQVHR4-CBIeSU0OG-157">
          <mxGeometry y="250" width="660" height="132" as="geometry" />
        </mxCell>
        <mxCell id="AtuTsQVHR4-CBIeSU0OG-171" style="swimlane;swimlaneHead=0;swimlaneBody=0;fontStyle=1;connectable=0;strokeColor=inherit;fillColor=none;startSize=0;collapsible=0;recursiveResize=0;expand=0;fontSize=16;" vertex="1" parent="AtuTsQVHR4-CBIeSU0OG-162">
          <mxGeometry x="40" width="155" height="132" as="geometry">
            <mxRectangle width="155" height="132" as="alternateBounds" />
          </mxGeometry>
        </mxCell>
        <mxCell id="AtuTsQVHR4-CBIeSU0OG-163" value="" style="swimlane;swimlaneHead=0;swimlaneBody=0;fontStyle=1;connectable=0;strokeColor=inherit;fillColor=none;startSize=0;collapsible=0;recursiveResize=0;expand=0;fontSize=16;" vertex="1" parent="AtuTsQVHR4-CBIeSU0OG-162">
          <mxGeometry x="195" width="155" height="132" as="geometry">
            <mxRectangle width="155" height="132" as="alternateBounds" />
          </mxGeometry>
        </mxCell>
        <mxCell id="AtuTsQVHR4-CBIeSU0OG-164" value="" style="swimlane;swimlaneHead=0;swimlaneBody=0;fontStyle=1;connectable=0;strokeColor=inherit;fillColor=none;startSize=0;collapsible=0;recursiveResize=0;expand=0;fontSize=16;" vertex="1" parent="AtuTsQVHR4-CBIeSU0OG-162">
          <mxGeometry x="350" width="155" height="132" as="geometry">
            <mxRectangle width="155" height="132" as="alternateBounds" />
          </mxGeometry>
        </mxCell>
        <mxCell id="AtuTsQVHR4-CBIeSU0OG-165" value="" style="swimlane;swimlaneHead=0;swimlaneBody=0;fontStyle=1;connectable=0;strokeColor=inherit;fillColor=none;startSize=0;collapsible=0;recursiveResize=0;expand=0;fontSize=16;" vertex="1" parent="AtuTsQVHR4-CBIeSU0OG-162">
          <mxGeometry x="505" width="155" height="132" as="geometry">
            <mxRectangle width="155" height="132" as="alternateBounds" />
          </mxGeometry>
        </mxCell>
        <mxCell id="AtuTsQVHR4-CBIeSU0OG-166" value="Actor 3" style="shape=tableRow;horizontal=0;swimlaneHead=0;swimlaneBody=0;top=0;left=0;strokeColor=inherit;bottom=0;right=0;dropTarget=0;fontStyle=1;fillColor=none;points=[[0,0.5],[1,0.5]];portConstraint=eastwest;startSize=40;collapsible=0;recursiveResize=0;expand=0;fontSize=16;" vertex="1" parent="AtuTsQVHR4-CBIeSU0OG-157">
          <mxGeometry y="382" width="660" height="133" as="geometry" />
        </mxCell>
        <mxCell id="AtuTsQVHR4-CBIeSU0OG-172" style="swimlane;swimlaneHead=0;swimlaneBody=0;fontStyle=1;connectable=0;strokeColor=inherit;fillColor=none;startSize=0;collapsible=0;recursiveResize=0;expand=0;fontSize=16;" vertex="1" parent="AtuTsQVHR4-CBIeSU0OG-166">
          <mxGeometry x="40" width="155" height="133" as="geometry">
            <mxRectangle width="155" height="133" as="alternateBounds" />
          </mxGeometry>
        </mxCell>
        <mxCell id="AtuTsQVHR4-CBIeSU0OG-167" value="" style="swimlane;swimlaneHead=0;swimlaneBody=0;fontStyle=1;connectable=0;strokeColor=inherit;fillColor=none;startSize=0;collapsible=0;recursiveResize=0;expand=0;fontSize=16;" vertex="1" parent="AtuTsQVHR4-CBIeSU0OG-166">
          <mxGeometry x="195" width="155" height="133" as="geometry">
            <mxRectangle width="155" height="133" as="alternateBounds" />
          </mxGeometry>
        </mxCell>
        <mxCell id="AtuTsQVHR4-CBIeSU0OG-168" value="" style="swimlane;swimlaneHead=0;swimlaneBody=0;fontStyle=1;connectable=0;strokeColor=inherit;fillColor=none;startSize=0;collapsible=0;recursiveResize=0;expand=0;fontSize=16;" vertex="1" parent="AtuTsQVHR4-CBIeSU0OG-166">
          <mxGeometry x="350" width="155" height="133" as="geometry">
            <mxRectangle width="155" height="133" as="alternateBounds" />
          </mxGeometry>
        </mxCell>
        <mxCell id="AtuTsQVHR4-CBIeSU0OG-169" value="" style="swimlane;swimlaneHead=0;swimlaneBody=0;fontStyle=1;connectable=0;strokeColor=inherit;fillColor=none;startSize=0;collapsible=0;recursiveResize=0;expand=0;fontSize=16;" vertex="1" parent="AtuTsQVHR4-CBIeSU0OG-166">
          <mxGeometry x="505" width="155" height="133" as="geometry">
            <mxRectangle width="155" height="133" as="alternateBounds" />
          </mxGeometry>
        </mxCell>
        <mxCell id="AtuTsQVHR4-CBIeSU0OG-178" style="shape=tableRow;horizontal=0;swimlaneHead=0;swimlaneBody=0;top=0;left=0;strokeColor=inherit;bottom=0;right=0;dropTarget=0;fontStyle=1;fillColor=none;points=[[0,0.5],[1,0.5]];portConstraint=eastwest;startSize=40;collapsible=0;recursiveResize=0;expand=0;fontSize=16;" vertex="1" parent="AtuTsQVHR4-CBIeSU0OG-157">
          <mxGeometry y="515" width="660" height="132" as="geometry" />
        </mxCell>
        <mxCell id="AtuTsQVHR4-CBIeSU0OG-179" style="swimlane;swimlaneHead=0;swimlaneBody=0;fontStyle=1;connectable=0;strokeColor=inherit;fillColor=none;startSize=0;collapsible=0;recursiveResize=0;expand=0;fontSize=16;" vertex="1" parent="AtuTsQVHR4-CBIeSU0OG-178">
          <mxGeometry x="40" width="155" height="132" as="geometry">
            <mxRectangle width="155" height="132" as="alternateBounds" />
          </mxGeometry>
        </mxCell>
        <mxCell id="AtuTsQVHR4-CBIeSU0OG-180" style="swimlane;swimlaneHead=0;swimlaneBody=0;fontStyle=1;connectable=0;strokeColor=inherit;fillColor=none;startSize=0;collapsible=0;recursiveResize=0;expand=0;fontSize=16;" vertex="1" parent="AtuTsQVHR4-CBIeSU0OG-178">
          <mxGeometry x="195" width="155" height="132" as="geometry">
            <mxRectangle width="155" height="132" as="alternateBounds" />
          </mxGeometry>
        </mxCell>
        <mxCell id="AtuTsQVHR4-CBIeSU0OG-181" style="swimlane;swimlaneHead=0;swimlaneBody=0;fontStyle=1;connectable=0;strokeColor=inherit;fillColor=none;startSize=0;collapsible=0;recursiveResize=0;expand=0;fontSize=16;" vertex="1" parent="AtuTsQVHR4-CBIeSU0OG-178">
          <mxGeometry x="350" width="155" height="132" as="geometry">
            <mxRectangle width="155" height="132" as="alternateBounds" />
          </mxGeometry>
        </mxCell>
        <mxCell id="AtuTsQVHR4-CBIeSU0OG-182" style="swimlane;swimlaneHead=0;swimlaneBody=0;fontStyle=1;connectable=0;strokeColor=inherit;fillColor=none;startSize=0;collapsible=0;recursiveResize=0;expand=0;fontSize=16;" vertex="1" parent="AtuTsQVHR4-CBIeSU0OG-178">
          <mxGeometry x="505" width="155" height="132" as="geometry">
            <mxRectangle width="155" height="132" as="alternateBounds" />
          </mxGeometry>
        </mxCell>
        <mxCell id="AtuTsQVHR4-CBIeSU0OG-173" style="shape=tableRow;horizontal=0;swimlaneHead=0;swimlaneBody=0;top=0;left=0;strokeColor=inherit;bottom=0;right=0;dropTarget=0;fontStyle=1;fillColor=none;points=[[0,0.5],[1,0.5]];portConstraint=eastwest;startSize=40;collapsible=0;recursiveResize=0;expand=0;fontSize=16;" vertex="1" parent="AtuTsQVHR4-CBIeSU0OG-157">
          <mxGeometry y="647" width="660" height="133" as="geometry" />
        </mxCell>
        <mxCell id="AtuTsQVHR4-CBIeSU0OG-174" style="swimlane;swimlaneHead=0;swimlaneBody=0;fontStyle=1;connectable=0;strokeColor=inherit;fillColor=none;startSize=0;collapsible=0;recursiveResize=0;expand=0;fontSize=16;" vertex="1" parent="AtuTsQVHR4-CBIeSU0OG-173">
          <mxGeometry x="40" width="155" height="133" as="geometry">
            <mxRectangle width="155" height="133" as="alternateBounds" />
          </mxGeometry>
        </mxCell>
        <mxCell id="AtuTsQVHR4-CBIeSU0OG-175" style="swimlane;swimlaneHead=0;swimlaneBody=0;fontStyle=1;connectable=0;strokeColor=inherit;fillColor=none;startSize=0;collapsible=0;recursiveResize=0;expand=0;fontSize=16;" vertex="1" parent="AtuTsQVHR4-CBIeSU0OG-173">
          <mxGeometry x="195" width="155" height="133" as="geometry">
            <mxRectangle width="155" height="133" as="alternateBounds" />
          </mxGeometry>
        </mxCell>
        <mxCell id="AtuTsQVHR4-CBIeSU0OG-176" style="swimlane;swimlaneHead=0;swimlaneBody=0;fontStyle=1;connectable=0;strokeColor=inherit;fillColor=none;startSize=0;collapsible=0;recursiveResize=0;expand=0;fontSize=16;" vertex="1" parent="AtuTsQVHR4-CBIeSU0OG-173">
          <mxGeometry x="350" width="155" height="133" as="geometry">
            <mxRectangle width="155" height="133" as="alternateBounds" />
          </mxGeometry>
        </mxCell>
        <mxCell id="AtuTsQVHR4-CBIeSU0OG-177" style="swimlane;swimlaneHead=0;swimlaneBody=0;fontStyle=1;connectable=0;strokeColor=inherit;fillColor=none;startSize=0;collapsible=0;recursiveResize=0;expand=0;fontSize=16;" vertex="1" parent="AtuTsQVHR4-CBIeSU0OG-173">
          <mxGeometry x="505" width="155" height="133" as="geometry">
            <mxRectangle width="155" height="133" as="alternateBounds" />
          </mxGeometry>
        </mxCell>
      </root>
    </mxGraphModel>
  </diagram>
</mxfile>
